<?xml version="1.0" encoding="utf-8"?>
<!-- Generator: Adobe Illustrator 25.2.1, SVG Export Plug-In . SVG Version: 6.00 Build 0)  -->
<svg version="1.1" id="Capa_2_1_" xmlns="http://www.w3.org/2000/svg" xmlns:xlink="http://www.w3.org/1999/xlink" x="0px" y="0px"
	 viewBox="0 0 140.1 48" style="enable-background:new 0 0 140.1 48;" xml:space="preserve">
<style type="text/css">
	.st0{fill:url(#SVGID_1_);}
	.st1{fill:url(#SVGID_2_);}
	.st2{fill:url(#SVGID_3_);}
	.st3{fill:url(#SVGID_4_);}
	.st4{fill:url(#SVGID_5_);}
	.st5{enable-background:new    ;}
	.st6{fill:#FFFFFF;}
</style>
<g>
	
		<linearGradient id="SVGID_1_" gradientUnits="userSpaceOnUse" x1="6.9412" y1="40.4743" x2="35.873" y2="32.4031" gradientTransform="matrix(1 0 0 -1 0 50)">
		<stop  offset="0.1171" style="stop-color:#FF56F6"/>
		<stop  offset="1" style="stop-color:#B33CED"/>
	</linearGradient>
	<path class="st0" d="M0,20.2V0.7V0h3.4L9,15.1L14.5,0l0,0H18v0.7v19.5h-3.4V10l-3.7,10.1l-0.1,0.1H7.2l-0.1-0.1L3.4,9.9v10.3H0z"/>
	
		<linearGradient id="SVGID_2_" gradientUnits="userSpaceOnUse" x1="17.7755" y1="41.74" x2="47.6223" y2="35.5783" gradientTransform="matrix(1 0 0 -1 0 50)">
		<stop  offset="0" style="stop-color:#FF56F6"/>
		<stop  offset="0.7664" style="stop-color:#B43BED"/>
		<stop  offset="0.9609" style="stop-color:#B53AED"/>
	</linearGradient>
	<path class="st1" d="M23,13.1v3.4v3.7h-3.4V12V8.3V3.2c0-1.8,1.3-3.2,2.9-3.2H23h10h0.5c1.6,0,2.9,1.4,2.9,3.2v5.1V12v8.3H33v-3.7
		v-3.4L23,13.1L23,13.1z M23,3.7v4.6v1.2h10V8.3V3.7H23z"/>
	
		<linearGradient id="SVGID_3_" gradientUnits="userSpaceOnUse" x1="30.618" y1="43.3397" x2="59.2078" y2="36.6073" gradientTransform="matrix(1 0 0 -1 0 50)">
		<stop  offset="1.572913e-02" style="stop-color:#FF56F6"/>
		<stop  offset="0.7625" style="stop-color:#B954EE"/>
		<stop  offset="1" style="stop-color:#3BACE2"/>
	</linearGradient>
	<path class="st2" d="M50.8,20.2L46.3,13h-4.8v7.2h-3.4V13V9.4V0h3.4h10H52c1.7,0,3,1.4,3,3.2v6.2v0.5c0,1.7-1.3,3.2-2.9,3.2h-0.5
		h-1.1l1.1,1.7l3.4,5.4h-3.4C51.6,20.2,50.8,20.2,50.8,20.2z M41.5,9.4H44h4.1h3.4V3.7h-10V9.4z"/>
	
		<linearGradient id="SVGID_4_" gradientUnits="userSpaceOnUse" x1="48.4422" y1="44.3572" x2="76.8884" y2="36.7457" gradientTransform="matrix(1 0 0 -1 0 50)">
		<stop  offset="8.904015e-02" style="stop-color:#B33CED"/>
		<stop  offset="0.263" style="stop-color:#B936EE"/>
		<stop  offset="0.9782" style="stop-color:#3BACE2"/>
	</linearGradient>
	<path class="st3" d="M70.1,14.6h3.4V17c0,1.7-1.3,3.2-2.9,3.2h-11c-1.6,0-2.9-1.4-2.9-3.2V3.2C56.6,1.4,58,0,59.6,0h11
		c1.6,0,2.9,1.4,2.9,3.2v2.4h-3.4V3.7h-10v12.8h10V14.6z"/>
	
		<linearGradient id="SVGID_5_" gradientUnits="userSpaceOnUse" x1="65.8439" y1="45.2545" x2="89.0437" y2="38.1931" gradientTransform="matrix(1 0 0 -1 0 50)">
		<stop  offset="0" style="stop-color:#B33CED"/>
		<stop  offset="3.353189e-02" style="stop-color:#B936EE"/>
		<stop  offset="0.9976" style="stop-color:#3BACE2"/>
	</linearGradient>
	<path class="st4" d="M92,3.2v13.9c0,1.7-1.3,3.2-2.9,3.2h-11c-1.6,0-2.9-1.4-2.9-3.2V3.2c0-1.8,1.3-3.2,2.9-3.2h11
		C90.7,0,92,1.4,92,3.2z M88.6,3.7h-10v12.8h10V3.7z"/>
</g>
<g class="st5">
	<path class="st6" d="M18.3,35.7c0,1.7-1.4,3.2-3.1,3.2h-0.5H3.7V46H0v-7.2V25.8h3.7h10.9h0.5c1.7,0,3.1,1.4,3.1,3.2v6.2V35.7z
		 M3.7,29.5v5.7h10.9v-5.7H3.7z"/>
	<path class="st6" d="M24.1,38.9v3.4V46h-3.7v-8.3V34v-5.1c0-1.8,1.4-3.2,3.2-3.2h0.5H35h0.5c1.8,0,3.2,1.4,3.2,3.2V34v3.7V46H35
		v-3.7v-3.4H24.1z M24.1,29.5V34v1.2H35V34v-4.6H24.1z"/>
	<path class="st6" d="M55.5,40.4h3.7v2.4c0,1.7-1.4,3.2-3.2,3.2H44c-1.7,0-3.2-1.4-3.2-3.2V28.9c0-1.8,1.4-3.2,3.2-3.2h12
		c1.8,0,3.2,1.4,3.2,3.2v2.4h-3.7v-1.9H44.6v12.8h10.9V40.4z"/>
	<path class="st6" d="M65,46h-3.7v-8.3V34v-8.3H65V34h10.9v-8.3h3.7V34v3.7V46h-3.7v-8.3H65V46z"/>
	<path class="st6" d="M99.1,46H85.5h-3.7v-3.7v-4.6V34v-4.6v-3.7h14.6h2.7v3.7h-2.7H85.5V34h11.8v3.7H85.5v4.6h10.9h2.7V46z"/>
	<path class="st6" d="M115.9,40.4h3.7v2.4c0,1.7-1.4,3.2-3.2,3.2h-12c-1.7,0-3.2-1.4-3.2-3.2V28.9c0-1.8,1.4-3.2,3.2-3.2h12
		c1.8,0,3.2,1.4,3.2,3.2v2.4h-3.7v-1.9h-10.9v12.8h10.9V40.4z"/>
	<path class="st6" d="M140,28.9v13.9c0,1.7-1.4,3.2-3.2,3.2h-12c-1.7,0-3.2-1.4-3.2-3.2V28.9c0-1.8,1.4-3.2,3.2-3.2h12
		C138.6,25.8,140,27.2,140,28.9z M136.3,29.5h-10.9v12.8h10.9V29.5z"/>
</g>
</svg>
